<?xml version="1.0" encoding="iso-8859-1"?>
<!-- Generator: Adobe Illustrator 18.1.1, SVG Export Plug-In . SVG Version: 6.00 Build 0)  -->
<svg version="1.1" id="Capa_1" xmlns="http://www.w3.org/2000/svg" xmlns:xlink="http://www.w3.org/1999/xlink" x="0px" y="0px"
	 viewBox="0 0 40.406 40.406" style="enable-background:new 0 0 40.406 40.406;" xml:space="preserve">
<g>
	<g>
		<path fill="#0030FF" d="M4.153,0v34.713h32.101V0H4.153z M14.323,1.768h11.76v1.777h-11.76V1.768z M10.674,31.332
			c-1.541,0-2.789-1.248-2.789-2.789c0-1.539,1.248-2.789,2.789-2.789s2.788,1.25,2.788,2.789
			C13.464,30.084,12.215,31.332,10.674,31.332z M29.907,31.332c-1.539,0-2.788-1.248-2.788-2.789c0-1.539,1.249-2.789,2.788-2.789
			c1.542,0,2.79,1.25,2.79,2.789C32.698,30.084,31.45,31.332,29.907,31.332z M33.453,19.127H6.953v-13.9h26.501
			C33.453,5.227,33.453,19.127,33.453,19.127z"/>
		<rect fill="#0030FF" x="6.392" y="35.087" width="5.786" height="5.319"/>
		<rect fill="#0030FF" x="28.414" y="35.087" width="5.787" height="5.319"/>
	</g>
</g>
</svg>
